<svg 
    xmlns="http://www.w3.org/2000/svg" 
    viewBox="0 0 66.56 66.56">
        <g>
            <path d="M35.36,66.56H15.6A15.62,15.62,0,0,1,0,51V15.6A15.62,15.62,0,0,1,15.6,0H51a15.62,15.62,0,0,1,15.6,15.6v7.67a2.6,2.6,0,0,1-5.2,0V15.6A10.42,10.42,0,0,0,51,5.2H15.6A10.42,10.42,0,0,0,5.2,15.6V51a10.42,10.42,0,0,0,10.4,10.4H35.36A2.6,2.6,0,0,1,35.36,66.56Zm19.5-48.62a2.59,2.59,0,0,0-2.6-2.6H25.35a2.6,2.6,0,0,0,0,5.2H52.26A2.59,2.59,0,0,0,54.86,17.94Zm-24,15.34a2.59,2.59,0,0,0-2.6-2.6H25.35a2.6,2.6,0,0,0,0,5.2h2.86A2.59,2.59,0,0,0,30.81,33.28ZM66.56,48.81a7,7,0,0,0-3.8-6.23L62,37.68a13.39,13.39,0,0,0-5.81-9.29,14.07,14.07,0,0,0-15.24,0,13.39,13.39,0,0,0-5.81,9.29l-.77,5C28,46.1,30.44,55.83,37.69,55.9H59.55a7.06,7.06,0,0,0,7-7.09ZM53.31,32.73a8.11,8.11,0,0,1,3.53,5.69v0l1,6.43a2.61,2.61,0,0,0,2,2.15,1.85,1.85,0,0,1-.36,3.66H37.69a1.86,1.86,0,0,1-.41-3.65,2.6,2.6,0,0,0,2-2.14l1-6.45v0a8.15,8.15,0,0,1,3.54-5.69,8.74,8.74,0,0,1,9.49,0Zm-.53,11a2.59,2.59,0,0,0-2.6-2.6H46.67a2.6,2.6,0,0,0,0,5.2h3.51A2.59,2.59,0,0,0,52.78,43.68Zm-4,22.88a6.49,6.49,0,0,1-6.48-5.67,2.6,2.6,0,0,1,5.17-.62,1.34,1.34,0,0,0,2.63,0,2.6,2.6,0,0,1,5.17.62A6.5,6.5,0,0,1,48.75,66.56ZM15,14.82a3.25,3.25,0,1,0,3.25,3.25A3.26,3.26,0,0,0,15,14.82ZM15,30a3.25,3.25,0,1,0,3.25,3.25A3.26,3.26,0,0,0,15,30Zm0,15.34a3.25,3.25,0,1,0,3.25,3.25A3.26,3.26,0,0,0,15,45.37Z"/>
        </g>
</svg>