<svg 
    xmlns="http://www.w3.org/2000/svg" 
    viewBox="0 0 66.56 66.55">
        <g>
            <path class="cls-1" d="M2.6,66.55a2.69,2.69,0,0,1-1-.19A2.61,2.61,0,0,1,0,64V33.59C-.2,3.86,36-11.25,56.93,9.82c20.74,21,5.77,56.76-23.81,56.73a32.81,32.81,0,0,1-14.86-3.49A11.53,11.53,0,0,0,5,65.28l-.51.51a2.59,2.59,0,0,1-1.84.76Zm10.56-9.89a16.58,16.58,0,0,1,7.43,1.75,27.59,27.59,0,0,0,12.56,2.94C58,61.39,70.74,31,53.24,13.48c-17.76-17.77-48.17-5-48,20.07V58.68A16.64,16.64,0,0,1,13.16,56.66ZM25.48,33.28A3.25,3.25,0,1,1,22.23,30,3.26,3.26,0,0,1,25.48,33.28ZM33.41,30a3.25,3.25,0,1,0,3.25,3.25A3.24,3.24,0,0,0,33.41,30Zm11.18,0a3.25,3.25,0,1,0,3.24,3.25A3.24,3.24,0,0,0,44.59,30Z"/>
        </g>
</svg>