<svg xmlns="http://www.w3.org/2000/svg" viewBox="0 0 66.54 66.56"><defs><style>.cls-1{fill:#b1d5a4;}</style></defs><g id="Слой_2" data-name="Слой 2"><g id="Слой_1-2" data-name="Слой 1"><path class="cls-1" d="M48.32,66.55a10.42,10.42,0,0,1-5.8-1.76l-14-9.28a2.6,2.6,0,1,1,2.88-4.33l14,9.28A5.28,5.28,0,0,0,53.53,57l7.73-45.59a5.28,5.28,0,0,0-7.36-5.7L8.3,26.06a5.26,5.26,0,0,0-.77,9.2L13.9,39.5A2.6,2.6,0,0,1,11,43.83L4.65,39.59C-2.2,35.2-1.3,24.5,6.17,21.31L51.78.92A10.48,10.48,0,0,1,66.39,12.23L58.66,57.82a10.49,10.49,0,0,1-10.34,8.73ZM22.6,64V52a8.89,8.89,0,0,1,2.61-6.27L49.65,21.47A2.6,2.6,0,1,0,46,17.78L21.55,42A14.11,14.11,0,0,0,17.4,52V64a2.6,2.6,0,1,0,5.2,0Z"/></g></g></svg>