<svg xmlns="http://www.w3.org/2000/svg" viewBox="0 0 60.11 66.56"><defs><style>.cls-1{fill:#8381a0;}</style></defs><g id="Слой_2" data-name="Слой 2"><g id="Слой_1-2" data-name="Слой 1"><path class="cls-1" d="M30.05,66.56a7.81,7.81,0,0,1-7.8-7.8v-.07a2.24,2.24,0,0,0-1.44-2.09,24.62,24.62,0,0,1-6.59-3.84,2.28,2.28,0,0,0-2.54-.23h0A7.83,7.83,0,0,1,1,49.6,7.8,7.8,0,0,1,4,39l0,0a2.21,2.21,0,0,0,1.11-2.22,25.26,25.26,0,0,1,0-7.16A2.26,2.26,0,0,0,4,27.31l0,0A7.8,7.8,0,0,1,1,16.66a7.83,7.83,0,0,1,10.64-2.94l.16.09a2.26,2.26,0,0,0,2.53-.23,24.91,24.91,0,0,1,6.46-3.72,2.26,2.26,0,0,0,1.44-2.1c.42-10.35,15.18-10.35,15.61,0v.06A2.23,2.23,0,0,0,39.29,9.9a25.13,25.13,0,0,1,6.37,3.72,2.28,2.28,0,0,0,2.54.23l.23-.13a7.84,7.84,0,0,1,10.65,2.94,7.77,7.77,0,0,1-2.95,10.63l-.18.1a2.21,2.21,0,0,0-1.12,2.22,25.23,25.23,0,0,1,0,7A2.25,2.25,0,0,0,56,38.88l.16.09a7.8,7.8,0,1,1-7.69,13.57l-.09,0a2.26,2.26,0,0,0-2.55.24,25.34,25.34,0,0,1-6.52,3.83,2.22,2.22,0,0,0-1.42,2.08v.12a7.82,7.82,0,0,1-7.81,7.8ZM12.78,47a7.5,7.5,0,0,1,4.71,1.67,19.74,19.74,0,0,0,5.23,3,7.41,7.41,0,0,1,4.73,6.93v.07a2.6,2.6,0,0,0,5.2,0v-.12a7.42,7.42,0,0,1,4.7-6.92,19.93,19.93,0,0,0,5.17-3,7.42,7.42,0,0,1,8.4-.72L51,48a2.62,2.62,0,0,0,3.56-1,2.59,2.59,0,0,0-1-3.53h0l-.16-.09A7.4,7.4,0,0,1,49.7,36a19.82,19.82,0,0,0,0-5.6,7.47,7.47,0,0,1,3.7-7.49l.18-.11a2.58,2.58,0,0,0,1-3.53,2.63,2.63,0,0,0-3.57-1l-.22.13a7.43,7.43,0,0,1-8.36-.7,19.51,19.51,0,0,0-5-2.94,7.43,7.43,0,0,1-4.71-6.92V7.76a2.6,2.6,0,0,0-5.2,0,7.42,7.42,0,0,1-4.74,6.94,19.6,19.6,0,0,0-5.11,2.95,7.45,7.45,0,0,1-8.35.68l-.15-.08a2.62,2.62,0,0,0-3.56,1,2.59,2.59,0,0,0,1,3.53l0,0a7.49,7.49,0,0,1,3.71,7.54,20,20,0,0,0,0,5.68,7.37,7.37,0,0,1-3.7,7.46l0,0a2.58,2.58,0,0,0-1,3.53,2.63,2.63,0,0,0,3.57,1,7.44,7.44,0,0,1,3.67-1Zm17.27-.12A13.68,13.68,0,0,1,16.39,33.26c.75-18.12,26.57-18.11,27.32,0A13.68,13.68,0,0,1,30.05,46.92Zm0-22.12a8.47,8.47,0,0,0-8.45,8.46c.46,11.22,16.44,11.21,16.91,0a8.48,8.48,0,0,0-8.46-8.46Z"/></g></g></svg>