<svg xmlns="http://www.w3.org/2000/svg" viewBox="0 0 66.49 66.56"><defs><style>.cls-1{fill:#8381a0;}</style></defs><g id="Слой_2" data-name="Слой 2"><g id="Слой_1-2" data-name="Слой 1"><path class="cls-1" d="M50.24,21.59A2.6,2.6,0,0,1,47,19.94,21.4,21.4,0,0,0,26.58,5.2C4.38,5.44-3,34.77,16.37,45.52a2.6,2.6,0,1,1-2.48,4.57C-10.22,36.73-1,.29,26.58,0A26.73,26.73,0,0,1,51.89,18.31a2.6,2.6,0,0,1-1.65,3.28ZM34,30.55a6.31,6.31,0,0,0-2.16-4.7A7.31,7.31,0,0,0,27,24.05c-1.26,0-2.21-.56-2.21-1.3a1.3,1.3,0,0,1,1.3-1.3,10.37,10.37,0,0,1,4,.86,2.6,2.6,0,1,0,1.89-4.84,20.74,20.74,0,0,0-2.24-.74v-.61a2.6,2.6,0,0,0-5.2,0v.32C16.82,18.77,18.43,29.28,27,29.25c1,0,1.82.6,1.82,1.3a1.35,1.35,0,0,1-1.37,1.3,14,14,0,0,1-4.43-1,2.6,2.6,0,1,0-1.92,4.83,20,20,0,0,0,3.43,1v.34a2.6,2.6,0,0,0,5.2,0v-.4A6.53,6.53,0,0,0,34,30.55Zm29.9,18.59a2.59,2.59,0,0,0-2.6,2.6V64a2.6,2.6,0,0,0,5.2,0V51.74A2.6,2.6,0,0,0,63.89,49.14Zm-10.4,3a2.59,2.59,0,0,0-2.6,2.6V64a2.6,2.6,0,0,0,5.2,0V54.73A2.6,2.6,0,0,0,53.49,52.13Zm-10.4,5.72a2.59,2.59,0,0,0-2.6,2.6V64a2.6,2.6,0,0,0,5.2,0V60.45A2.6,2.6,0,0,0,43.09,57.85Zm-10.4-2.21a2.59,2.59,0,0,0-2.6,2.6V64a2.6,2.6,0,0,0,5.2,0V58.24A2.6,2.6,0,0,0,32.69,55.64ZM13.13,66.56a2.6,2.6,0,0,1-1.83-4.44l15.08-15,.09-.09a9.08,9.08,0,0,1,11.69-.4l.22.16.07.06a3.92,3.92,0,0,0,5.32-.45l0,0L53,36.57a2.6,2.6,0,0,1,3.79,3.56l-9.19,9.79A9.12,9.12,0,0,1,35.27,51l-.22-.16L35,50.76a3.88,3.88,0,0,0-5,.12L15,65.8a2.58,2.58,0,0,1-1.84.76ZM66.49,41.34v-7a7.81,7.81,0,0,0-7.8-7.8h-7a2.6,2.6,0,0,0,0,5.2h7a2.61,2.61,0,0,1,2.6,2.6v7a2.6,2.6,0,1,0,5.2,0Z"/></g></g></svg>